<svg width="31" height="31" viewBox="0 0 31 31" fill="none" xmlns="http://www.w3.org/2000/svg">
<path d="M15.5 0C6.95296 0 0 6.95296 0 15.5C0 24.047 6.95296 31 15.5 31C24.047 31 31 24.047 31 15.5C31 6.95296 24.047 0 15.5 0ZM22.8716 23.5173C22.6197 23.7691 22.2891 23.8959 21.9584 23.8959C21.6278 23.8959 21.2969 23.7691 21.0452 23.5173L14.5868 17.0591C14.3439 16.8176 14.2084 16.4893 14.2084 16.1459V7.75C14.2084 7.03574 14.7869 6.45841 15.5 6.45841C16.2131 6.45841 16.7916 7.03574 16.7916 7.75V15.6112L22.8716 21.6909C23.3765 22.1961 23.3765 23.0123 22.8716 23.5173Z" fill="#1B4965"/>
</svg>
