<svg width="35" height="35" viewBox="0 0 35 35" fill="none" xmlns="http://www.w3.org/2000/svg">
    <path d="M17.5 0C7.85011 0 0 7.85011 0 17.5C0 27.1499 7.85011 35 17.5 35C27.1499 35 35 27.1499 35 17.5C35 7.85011 27.1499 0 17.5 0ZM25.8228 26.5517C25.5384 26.8361 25.1651 26.9793 24.7918 26.9793C24.4184 26.9793 24.0449 26.8361 23.7608 26.5517L16.469 19.2603C16.1948 18.9876 16.0418 18.617 16.0418 18.2293V8.75C16.0418 7.94357 16.6949 7.29176 17.5 7.29176C18.3051 7.29176 18.9582 7.94357 18.9582 8.75V17.6255L25.8228 24.4897C26.3929 25.0601 26.3929 25.9816 25.8228 26.5517Z"
          fill="#1b4965"/>
</svg>
