<svg width="16" height="16" viewBox="0 0 16 16" fill="none" xmlns="http://www.w3.org/2000/svg">
<g clip-path="url(#clip0)">
<path fill-rule="evenodd" clip-rule="evenodd" d="M3.36804 0H5.89941C6.67456 0 7.30566 0.631104 7.30566 1.40625V2.24976H8.02441C8.28333 2.24976 8.49316 2.45972 8.49316 2.71851C8.49316 2.97742 8.28333 3.18726 8.02441 3.18726H7.29553C7.17627 4.55872 6.02478 5.62488 4.63379 5.62488C3.1582 5.62488 1.96179 4.42847 1.96179 2.95288C1.96179 2.43787 1.96179 1.92175 1.96179 1.40625C1.96179 0.631104 2.5929 0 3.36804 0Z" fill="#A2A2A2"/>
<path fill-rule="evenodd" clip-rule="evenodd" d="M5.72571 6.79785C6.06775 6.95227 6.37158 7.17603 6.61865 7.45081L9.13867 10.0311H12.6562C13.4307 10.0311 14.0625 10.6631 14.0625 11.4375C14.0625 12.2118 13.4305 12.8438 12.6562 12.8438H8.71863C8.28662 12.8438 7.8584 12.7352 7.53674 12.4113L7.11768 11.9894V15.531C7.11768 15.7581 6.95642 15.9568 6.74219 16L2.42957 15.9998C2.17102 15.9995 1.96143 15.7897 1.96143 15.531V9.23425C1.96143 7.30933 3.96094 6.00134 5.72571 6.79785Z" fill="#A2A2A2"/>
<path fill-rule="evenodd" clip-rule="evenodd" d="M12.7744 9.09363H9.39929C9.14038 9.09363 8.93054 8.88379 8.93054 8.62488V5.28113C8.93054 5.02222 9.14038 4.81238 9.39929 4.81238H10.618V5.61755C10.618 5.87646 10.828 6.0863 11.0868 6.0863C11.3457 6.0863 11.5555 5.87646 11.5555 5.61755V4.81238H12.7744C13.0332 4.81238 13.2432 5.02222 13.2432 5.28113V8.62488C13.2432 8.88379 13.0332 9.09363 12.7744 9.09363Z" fill="#A2A2A2"/>
</g>
<defs>
<clipPath id="clip0">
<rect width="16" height="16" fill="white" transform="matrix(-1 0 0 1 16 0)"/>
</clipPath>
</defs>
</svg>
