<svg width="35" height="35" viewBox="0 0 35 35" fill="none" xmlns="http://www.w3.org/2000/svg">
<g clip-path="url(#clip0)">
<path d="M21.1202 4.51959C20.2614 4.51959 19.5908 3.81911 19.5908 2.99025C19.5908 2.08853 20.376 1.37923 21.2708 1.46857C22.0657 1.55334 22.6495 2.20979 22.6495 2.99025C22.6495 3.81945 21.9793 4.51959 21.1202 4.51959Z" fill="#FFA133"/>
<path d="M31.4181 19.3916H31.4188C31.4983 18.5512 32.2447 17.9342 33.0857 18.0137C33.9262 18.0932 34.5432 18.8396 34.4637 19.6807C34.388 20.4721 33.722 21.0654 32.9427 21.0654C32.0347 21.0655 31.3335 20.286 31.4181 19.3916Z" fill="#FFA133"/>
<path d="M31.0076 14.4343C30.7889 13.6184 31.2729 12.7803 32.0889 12.5616C32.9047 12.3429 33.7437 12.827 33.9623 13.6429C34.1811 14.4588 33.6963 15.2976 32.8811 15.5164C32.748 15.5516 32.615 15.5683 32.4842 15.5683C31.8083 15.5683 31.1904 15.118 31.0076 14.4343Z" fill="#FFA133"/>
<path d="M28.8835 9.94341C28.3919 9.25599 28.5502 8.30087 29.2368 7.80923C29.9235 7.31834 30.8785 7.47584 31.3702 8.16327C31.8619 8.84987 31.7036 9.80499 31.017 10.2966C30.747 10.4893 30.4366 10.5826 30.1284 10.5826C29.6513 10.5826 29.1818 10.3601 28.8835 9.94341Z" fill="#FFA133"/>
<path d="M24.9043 4.35216C25.3761 3.65168 26.3266 3.46738 27.0271 3.9392C27.7274 4.41177 27.9124 5.36231 27.4399 6.0619C27.1448 6.50008 26.6623 6.73633 26.1706 6.73633C24.9562 6.73633 24.2168 5.37106 24.9043 4.35216Z" fill="#FFA133"/>
<path d="M31.4454 26.3784C30.6038 26.3784 29.916 25.6939 29.916 24.8491C29.916 23.9456 30.6999 23.2386 31.596 23.3274C32.4048 23.4162 32.9747 24.0787 32.9747 24.8491C32.9747 25.673 32.3065 26.3784 31.4454 26.3784Z" fill="#FFA133"/>
<path d="M29.4486 27.7672C28.8413 27.2679 27.9545 27.3108 27.3978 27.866C24.8877 30.3693 21.5076 31.836 17.9319 31.9359C10.24 32.1508 3.80734 26.0677 3.59249 18.3758C3.43984 12.9121 6.49551 7.93091 11.243 5.52903L11.7344 7.54379C11.8478 8.00891 12.4275 8.16935 12.7639 7.82878L17.4428 3.09257C17.7629 2.76855 17.6293 2.22085 17.1959 2.08065L10.8618 0.0308213C10.4063 -0.116561 9.96563 0.292706 10.0791 0.757823L10.5023 2.49285C4.35053 5.28766 0.342206 11.5587 0.53498 18.4612C0.797548 27.861 8.61663 35.256 18.0173 34.9934C22.3761 34.8716 26.4964 33.084 29.5561 30.0333C30.1969 29.3944 30.1476 28.342 29.4486 27.7672Z" fill="#FFA133"/>
<path d="M32.9102 18.0074C33.0581 18.27 33.1305 18.5787 33.1 18.9015C33.0253 19.6832 32.3743 20.2706 31.6074 20.285C31.8679 20.7475 32.3629 21.0655 32.9427 21.0655C33.7219 21.0655 34.3879 20.4721 34.4637 19.6807C34.5492 18.776 33.8305 17.9896 32.9102 18.0074Z" fill="#FFA133"/>
<path d="M33.9622 13.6429C33.7763 12.9492 33.142 12.4957 32.4546 12.5097C33.0191 13.5148 32.3098 14.7648 31.1514 14.7881C31.421 15.2689 31.9332 15.5683 32.4841 15.5683C32.6149 15.5683 32.7479 15.5515 32.881 15.5163C33.6961 15.2976 34.1809 14.4587 33.9622 13.6429Z" fill="#FFA133"/>
<path d="M31.37 8.16327C31.0651 7.73705 30.5822 7.51509 30.0954 7.52452C30.6638 8.53179 29.9438 9.78024 28.7939 9.80239C29.0755 10.3025 29.5918 10.5827 30.1281 10.5827C31.3616 10.5826 32.0965 9.17793 31.37 8.16327Z" fill="#FFA133"/>
<path d="M27.0275 3.9392C26.7554 3.756 26.4457 3.67287 26.141 3.67937C26.4148 4.16745 26.4112 4.78761 26.0767 5.28267C25.7885 5.7106 25.3214 5.94535 24.8418 5.95608C25.0971 6.40916 25.5769 6.73633 26.171 6.73633C26.6626 6.73633 27.1452 6.50008 27.4403 6.0619C27.9129 5.36231 27.7279 4.41177 27.0275 3.9392Z" fill="#FFA133"/>
<path d="M31.5954 23.3274C31.5341 23.3213 31.4735 23.3193 31.4135 23.3204C31.5392 23.5439 31.6105 23.7999 31.6105 24.0699C31.6105 24.8838 30.9582 25.5816 30.1123 25.5984C30.3752 26.0638 30.8745 26.3784 31.4448 26.3784C32.3058 26.3784 32.9741 25.673 32.9741 24.849C32.9741 24.0787 32.4041 23.4163 31.5954 23.3274Z" fill="#FFA133"/>
<path d="M29.4485 27.767C29.1448 27.5173 28.7713 27.4032 28.4041 27.421C28.7545 28.0052 28.684 28.781 28.1712 29.2924C25.1115 32.3431 20.9912 34.1307 16.6324 34.2524C13.8456 34.3303 11.1979 33.7351 8.84473 32.6142C11.5217 34.2082 14.6689 35.0867 18.0171 34.9932C22.3759 34.8715 26.4963 33.0839 29.5559 30.0332C30.1968 29.3942 30.1476 28.3418 29.4485 27.767Z" fill="#FFA133"/>
</g>
<defs>
<clipPath id="clip0">
<rect width="35" height="35" fill="white"/>
</clipPath>
</defs>
</svg>
