<svg width="45" height="45" viewBox="0 0 45 45" fill="none" xmlns="http://www.w3.org/2000/svg">
<g clip-path="url(#clip0)">
<path d="M12.333 30.9166C12.333 31.6666 12.6663 32.4166 13.2497 32.9166C15.6663 34.9999 18.833 36.2499 22.333 36.2499C25.833 36.2499 28.9997 34.9999 31.4163 32.9166C31.9997 32.4166 32.333 31.6666 32.333 30.9166C32.333 27.4166 29.4997 24.5833 25.9997 24.5833H18.6663C15.1663 24.5833 12.333 27.4166 12.333 30.9166Z" fill="#1B4965"/>
<path d="M28.583 15.25C28.583 11.75 25.7497 9 22.333 9C18.833 9 16.083 11.8333 16.083 15.25C16.083 18.75 18.9163 21.5 22.333 21.5C25.7497 21.5833 28.583 18.75 28.583 15.25Z" fill="#1B4965"/>
</g>
<path d="M45 22.5C45 34.9264 34.9264 45 22.5 45C10.0736 45 0 34.9264 0 22.5C0 10.0736 10.0736 0 22.5 0C34.9264 0 45 10.0736 45 22.5ZM1.8 22.5C1.8 33.9323 11.0677 43.2 22.5 43.2C33.9323 43.2 43.2 33.9323 43.2 22.5C43.2 11.0677 33.9323 1.8 22.5 1.8C11.0677 1.8 1.8 11.0677 1.8 22.5Z" fill="#1B4965"/>
<defs>
<clipPath id="clip0">
<rect width="20.8333" height="28.3333" fill="white" transform="translate(11.666 8.33331)"/>
</clipPath>
</defs>
</svg>
